<svg width="210mm" height="297mm" version="1.1" viewBox="0 0 210 297" xmlns="http://www.w3.org/2000/svg">
 <g stroke-width=".26458">
  <path d="m-15.119 264.58 92.49-142.61-148.53-82.649 164.21 43.896 32.707-166.8 8.9955 169.73 168.74-20.437-158.65 61.006 71.58 154.17-107.04-132.03z" fill="#00f"/>
  <path d="m-15.119 264.58 92.49-142.61-148.53-82.649 164.21 43.896 32.707-166.8 8.9955 169.73 168.74-20.437-158.65 61.006 71.58 154.17-107.04-132.03z" fill="#ff0"/>
  <path d="m170.85 132.29-112.98-96.817-88.967 119.26 57.166-137.37-140.91-47.759 148.31 11.92 1.877-148.78 34.494 144.73 142.07-44.189-126.99 77.531z" fill-rule="evenodd" stroke="yellow"/>
  <path d="m54.429-42.333-7.5952 7.4984 7.9942 7.0715-9.4784-4.9063-4.2551 9.7881 1.7372-10.531-10.624-1.0221 10.552-1.602-2.3109-10.42 4.7844 9.5406z" fill="#f00"/>
 </g>

 <script>
     
 </script>
</svg>
